<svg xmlns="http://www.w3.org/2000/svg" viewBox="0 0 1200 630" width="1200" height="630">
  <defs>
    <linearGradient id="obg" x1="0%" y1="0%" x2="100%" y2="100%">
      <stop offset="0%" style="stop-color:#0a0d14"/>
      <stop offset="100%" style="stop-color:#111827"/>
    </linearGradient>
    <linearGradient id="oacc" x1="0%" y1="0%" x2="100%" y2="0%">
      <stop offset="0%" style="stop-color:#10b981"/>
      <stop offset="100%" style="stop-color:#34d399"/>
    </linearGradient>
  </defs>
  <rect width="1200" height="630" fill="url(#obg)"/>
  <!-- Grid -->
  <line x1="0" y1="210" x2="1200" y2="210" stroke="#34d399" stroke-width="0.5" opacity="0.06"/>
  <line x1="0" y1="420" x2="1200" y2="420" stroke="#34d399" stroke-width="0.5" opacity="0.06"/>
  <line x1="400" y1="0" x2="400" y2="630" stroke="#34d399" stroke-width="0.5" opacity="0.06"/>
  <line x1="800" y1="0" x2="800" y2="630" stroke="#34d399" stroke-width="0.5" opacity="0.06"/>
  <!-- Network dots -->
  <circle cx="100" cy="100" r="5" fill="#34d399" opacity="0.2"/>
  <circle cx="180" cy="70" r="4" fill="#34d399" opacity="0.15"/>
  <circle cx="140" cy="140" r="4" fill="#34d399" opacity="0.15"/>
  <line x1="100" y1="100" x2="180" y2="70" stroke="#34d399" stroke-width="1" opacity="0.1"/>
  <line x1="100" y1="100" x2="140" y2="140" stroke="#34d399" stroke-width="1" opacity="0.1"/>
  <circle cx="1050" cy="120" r="5" fill="#34d399" opacity="0.2"/>
  <circle cx="1120" cy="85" r="4" fill="#34d399" opacity="0.15"/>
  <circle cx="1090" cy="155" r="4" fill="#34d399" opacity="0.15"/>
  <line x1="1050" y1="120" x2="1120" y2="85" stroke="#34d399" stroke-width="1" opacity="0.1"/>
  <line x1="1050" y1="120" x2="1090" y2="155" stroke="#34d399" stroke-width="1" opacity="0.1"/>
  <!-- Chart decoration -->
  <polyline points="80,480 160,450 240,470 320,410 400,430 480,380 560,400 640,350 720,370 800,320 880,340 960,300 1040,320 1120,280"
    fill="none" stroke="#34d399" stroke-width="2.5" opacity="0.12"/>
  <!-- Main Title -->
  <text x="600" y="260" text-anchor="middle" font-family="'SF Pro Display','Inter','Segoe UI',Arial,sans-serif" font-size="86" font-weight="800" letter-spacing="-3">
    <tspan fill="#e4e4e7">Pay</tspan><tspan fill="url(#oacc)">Match</tspan>
  </text>
  <!-- Subtitle -->
  <text x="600" y="320" text-anchor="middle" font-family="'SF Pro Display','Inter','Segoe UI',Arial,sans-serif" font-size="28" font-weight="500" fill="#9ca3af" letter-spacing="4">P2P CRYPTO EXCHANGE</text>
  <!-- Tagline -->
  <text x="600" y="400" text-anchor="middle" font-family="'SF Pro Display','Inter','Segoe UI',Arial,sans-serif" font-size="24" fill="#34d399" opacity="0.9">Buy USDT with JPY bank transfer at the best rate</text>
  <!-- Exchange badges -->
  <rect x="340" y="440" width="100" height="32" rx="6" fill="#1a2233" stroke="#243049" stroke-width="1"/>
  <text x="390" y="462" text-anchor="middle" font-family="Arial,sans-serif" font-size="14" font-weight="600" fill="#f7a600">Bybit</text>
  <rect x="460" y="440" width="100" height="32" rx="6" fill="#1a2233" stroke="#243049" stroke-width="1"/>
  <text x="510" y="462" text-anchor="middle" font-family="Arial,sans-serif" font-size="14" font-weight="600" fill="#f0b90b">Binance</text>
  <rect x="580" y="440" width="80" height="32" rx="6" fill="#1a2233" stroke="#243049" stroke-width="1"/>
  <text x="620" y="462" text-anchor="middle" font-family="Arial,sans-serif" font-size="14" font-weight="600" fill="#ffffff">OKX</text>
  <rect x="680" y="440" width="100" height="32" rx="6" fill="#1a2233" stroke="#34d399" stroke-width="1"/>
  <text x="730" y="462" text-anchor="middle" font-family="Arial,sans-serif" font-size="14" font-weight="600" fill="#34d399">TruPay</text>
  <!-- URL -->
  <text x="600" y="555" text-anchor="middle" font-family="'SF Mono',monospace" font-size="18" fill="#5a6a85" letter-spacing="2">bkpay.app</text>
</svg>
